<svg xmlns="http://www.w3.org/2000/svg" viewBox="0 0 278.02 76.78"><defs><style>.a{fill:#6f6f6e;}.b{fill:#009de0;}.c{fill:#dbdc4d;}</style></defs><title>logo</title><path class="a" d="M212.46,80.28l-4.87,18.47h-8.87l13.38-50h8.8l-1.38,5.09c3.49-3.49,7.27-5.89,12.29-5.89,8.58,0,15,6.25,15,16.44a24.25,24.25,0,0,1-7,17.31,20.53,20.53,0,0,1-14.33,6.26C218.71,87.92,214.79,84.57,212.46,80.28ZM233,76.64a16.16,16.16,0,0,0,4.65-11.71c0-5.82-3.63-9.46-9.09-9.46a12.89,12.89,0,0,0-9.09,4,15.91,15.91,0,0,0-4.73,11.2,9.32,9.32,0,0,0,9.67,9.67A12.07,12.07,0,0,0,233,76.64Z" transform="translate(-85.82 -29.51)"/><path class="a" d="M248.3,77.44a12.83,12.83,0,0,1,3.64-9.24c3.05-3,7.71-4.66,13.16-4.66A41.43,41.43,0,0,1,277,65.44l0.22-.65a14.14,14.14,0,0,0,.44-3.2c0-3.56-2.47-5.82-8.51-5.82a28,28,0,0,0-10.47,2.11l-1.45-7.13a37.25,37.25,0,0,1,13.67-2.55c10,0,15.35,4.36,15.35,11.85a24.81,24.81,0,0,1-.8,5.6l-5.75,21.46h-8.51L272.52,82a16.63,16.63,0,0,1-12.65,5.89C253.32,87.92,248.3,83.77,248.3,77.44Zm26.91-5,0.51-1.75a31.23,31.23,0,0,0-9.31-1.46A10.5,10.5,0,0,0,259,71.77a6.42,6.42,0,0,0-1.89,4.65c0,3.05,2.4,5.16,6.25,5.16A12.83,12.83,0,0,0,275.21,72.42Z" transform="translate(-85.82 -29.51)"/><path class="a" d="M285,81.08l6-5.38a20.6,20.6,0,0,0,14,5.38c3.85,0,6.87-1.75,6.87-4.58,0-1.89-2-3.2-6.3-4.8-7.2-2.62-12.44-5.09-12.44-11,0-7.2,6.55-12.8,16.94-12.8a28.37,28.37,0,0,1,16.61,5.45L321.12,59c-3.93-2.76-7.86-4.22-11.87-4.22-4.26,0-6.63,1.89-6.63,4.36,0,2,2,3.2,6.87,5,6.55,2.47,11.87,5.16,11.87,10.76,0,7.93-7.37,13-17.27,13C297.56,88,290,85.73,285,81.08Z" transform="translate(-85.82 -29.51)"/><path class="a" d="M322.19,81.08l6-5.38a20.61,20.61,0,0,0,14,5.38c3.85,0,6.87-1.75,6.87-4.58,0-1.89-2-3.2-6.3-4.8-7.2-2.62-12.44-5.09-12.44-11,0-7.2,6.55-12.8,16.94-12.8a28.37,28.37,0,0,1,16.61,5.45L358.36,59c-3.93-2.76-7.86-4.22-11.87-4.22-4.26,0-6.63,1.89-6.63,4.36,0,2,2,3.2,6.87,5,6.55,2.47,11.87,5.16,11.87,10.76,0,7.93-7.37,13-17.27,13C334.79,88,327.27,85.73,322.19,81.08Z" transform="translate(-85.82 -29.51)"/><path class="b" d="M124.09,29.52A38.39,38.39,0,1,1,85.82,71.07V29.51h38.26Z" transform="translate(-85.82 -29.51)"/><path class="c" d="M113.25,71c0,6,3.51,10.08,10.23,10.08,3.81,0,6.72-1.27,10.08-3.81L137.88,83a22.93,22.93,0,0,1-15.3,5.45c-11,0-17.91-6.64-17.91-17.24a24.71,24.71,0,0,1,7.24-17.17,22.42,22.42,0,0,1,16-6.72c10.15,0,15.75,6.72,15.75,15.3A22,22,0,0,1,141.91,71H113.25Zm1-6h20.45a9.15,9.15,0,0,0,.37-2.76c0-4.11-2.39-7.54-7.84-7.54a12.76,12.76,0,0,0-9.11,3.88A16.49,16.49,0,0,0,114.22,65Z" transform="translate(-85.82 -29.51)"/><path class="b" d="M176.44,62.63c-2.42,0-4.36,2.87-4.36,5.24s1.95,5.24,4.36,5.24h14.17l5.19-5.19-5.28-5.29H176.44Z" transform="translate(-85.82 -29.51)"/></svg>