<!-- Generator: Adobe Illustrator 19.0.0, SVG Export Plug-In  -->
<svg version="1.1"
	 xmlns="http://www.w3.org/2000/svg" xmlns:xlink="http://www.w3.org/1999/xlink" xmlns:a="http://ns.adobe.com/AdobeSVGViewerExtensions/3.0/"
	 x="0px" y="0px" width="9.9px" height="7px" viewBox="0 0 9.9 7" style="overflow:scroll;enable-background:new 0 0 9.9 7;"
	 xml:space="preserve">
<style type="text/css">
	.st0{fill-rule:evenodd;clip-rule:evenodd;fill:#FFFFFF;}
	
		.st1{fill-rule:evenodd;clip-rule:evenodd;fill:none;stroke:#FFFFFF;stroke-width:0.1175;stroke-linecap:round;stroke-linejoin:round;}
</style>
<defs>
</defs>
<g>
	<path class="st0" d="M0,0.6c0,0-0.3,0.2,0.9-0.1C2.2,0.2,3.2-0.1,3.8,0c0.6,0.2,1,0.5,1,0.5v5.9c0,0-0.5-0.5-1.6-0.4
		C2.1,6.2,0.1,6.5,0.1,6.5L0,0.6z"/>
	<path class="st0" d="M9.9,0.6c0,0,0.3,0.2-0.9-0.1C7.7,0.2,6.7-0.1,6.1,0c-0.6,0.2-1,0.5-1,0.5v5.9c0,0,0.5-0.5,1.6-0.4
		c1.1,0.1,3.1,0.5,3.1,0.5L9.9,0.6z"/>
	<path class="st1" d="M4.7,6.5c0,0-0.4-0.3-1.3-0.3C2.5,6.3,0.2,6.7,0.2,6.7"/>
	<path class="st1" d="M5.3,6.5c0,0,0.4-0.3,1.3-0.3c0.9,0.1,3.2,0.4,3.2,0.4"/>
	<path class="st1" d="M4.7,6.7c0,0-0.4-0.3-1.3-0.3C2.5,6.6,0.2,6.9,0.2,6.9"/>
	<path class="st1" d="M5.3,6.7c0,0,0.4-0.3,1.3-0.3c0.9,0.1,3.2,0.4,3.2,0.4"/>
</g>
</svg>
