<!-- Generator: Adobe Illustrator 19.0.0, SVG Export Plug-In  -->
<svg version="1.1"
	 xmlns="http://www.w3.org/2000/svg" xmlns:xlink="http://www.w3.org/1999/xlink" xmlns:a="http://ns.adobe.com/AdobeSVGViewerExtensions/3.0/"
	 x="0px" y="0px" width="168.6px" height="155.8px" viewBox="0 0 168.6 155.8"
	 style="overflow:scroll;enable-background:new 0 0 168.6 155.8;" xml:space="preserve">
<style type="text/css">
	.st0{fill:#F28B00;}
</style>
<defs>
</defs>
<g id="XMLID_16_">
	<path id="XMLID_20_" class="st0" d="M21.3,102h69.2l25.3-25.3L90,50.9H21.3C9.5,50.9,0,64.9,0,76.5C0,88,9.5,102,21.3,102"/>
	<path id="XMLID_19_" class="st0" d="M168.6,77.9c0-0.3,0-0.7,0-1c0-4.7-1.8-9.2-5.1-12.4L104.1,5.1C100.8,1.8,96.4,0,91.8,0
		c-4.7,0-9,1.8-12.3,5.1c-3.3,3.3-5.1,7.7-5.1,12.4c0,4.7,1.8,9,5.1,12.3l21.8,21.8H101l26.3,26.3L101,104.2h0.3L79.4,126
		c-3.3,3.3-5.1,7.7-5.1,12.3c0,4.7,1.8,9.1,5.1,12.4c3.3,3.3,7.7,5.1,12.3,5.1c4.7,0,9.1-1.8,12.4-5.1l59.4-59.3
		c3.3-3.3,5.1-7.8,5.1-12.4C168.6,78.5,168.6,78.2,168.6,77.9z"/>
</g>
</svg>
