<!-- Generator: Adobe Illustrator 19.2.1, SVG Export Plug-In  -->
<svg version="1.1"
	 xmlns="http://www.w3.org/2000/svg" xmlns:xlink="http://www.w3.org/1999/xlink" xmlns:a="http://ns.adobe.com/AdobeSVGViewerExtensions/3.0/"
	 x="0px" y="0px" width="39.2px" height="64.8px" viewBox="0 0 39.2 64.8" style="enable-background:new 0 0 39.2 64.8;"
	 xml:space="preserve">
<style type="text/css">
	.st0{fill:#020202;}
</style>
<defs>
</defs>
<path class="st0" d="M39.2,32.4c0-0.1,0-0.3,0-0.4c0-1.9-0.8-3.8-2.1-5.2L12.4,2.1C11,0.8,9.2,0,7.3,0C5.3,0,3.5,0.8,2.1,2.1
	C0.8,3.5,0,5.3,0,7.3c0,1.9,0.8,3.8,2.1,5.1l9.1,9.1h-0.1L22,32.4L11.1,43.3h0.1l-9.1,9.1C0.8,53.8,0,55.6,0,57.5
	c0,1.9,0.8,3.8,2.1,5.1c1.4,1.4,3.2,2.1,5.1,2.1c1.9,0,3.8-0.8,5.1-2.1L37.1,38c1.4-1.4,2.1-3.2,2.1-5.2
	C39.2,32.7,39.2,32.5,39.2,32.4z"/>
</svg>

