<!-- Generator: Adobe Illustrator 19.0.0, SVG Export Plug-In  -->
<svg version="1.1"
	 xmlns="http://www.w3.org/2000/svg" xmlns:xlink="http://www.w3.org/1999/xlink" xmlns:a="http://ns.adobe.com/AdobeSVGViewerExtensions/3.0/"
	 x="0px" y="0px" width="77.8px" height="155.8px" viewBox="0 0 77.8 155.8"
	 style="overflow:scroll;enable-background:new 0 0 77.8 155.8;" xml:space="preserve">
<style type="text/css">
	.st0{fill:#F28B00;}
</style>
<defs>
</defs>
<path id="XMLID_15_" class="st0" d="M77.8,77.9c0-0.3,0-0.7,0-1c0-4.7-1.5-9.2-4.2-12.4l-49-59.3C21.9,1.8,18.3,0,14.4,0
	C10.6,0,6.9,1.8,4.2,5.1C1.5,8.4,0,12.8,0,17.5c0,4.7,1.5,9,4.2,12.3l18,21.8H22l21.7,26.3L22,104.2h0.2L4.2,126
	c-2.7,3.3-4.2,7.7-4.2,12.3c0,4.7,1.5,9.1,4.2,12.4c2.7,3.3,6.3,5.1,10.2,5.1c3.8,0,7.5-1.8,10.2-5.1l49-59.3
	c2.7-3.3,4.2-7.8,4.2-12.4C77.8,78.5,77.8,78.2,77.8,77.9z"/>
</svg>
