<!-- Generator: Adobe Illustrator 19.0.0, SVG Export Plug-In  -->
<svg version="1.1"
	 xmlns="http://www.w3.org/2000/svg" xmlns:xlink="http://www.w3.org/1999/xlink" xmlns:a="http://ns.adobe.com/AdobeSVGViewerExtensions/3.0/"
	 x="0px" y="0px" width="550.2px" height="909px" viewBox="0 0 550.2 909"
	 style="overflow:scroll;enable-background:new 0 0 550.2 909;" xml:space="preserve">
<style type="text/css">
	.st0{fill:#FFFFFF;}
</style>
<defs>
</defs>
<path id="XMLID_16_" class="st0" d="M550.1,454.5c0.1-1.9,0.1-3.9,0.1-5.8c0.1-27.2-10.5-53.4-29.7-72.6L174,29.8
	C154.8,10.6,129.1,0,101.9,0c-27.2,0-52.8,10.6-72,29.8C10.6,49.1,0,74.7,0,101.9c0,27.2,10.6,52.8,29.9,72l127.2,127.2h-1.5
	L309,454.5L155.6,607.8h1.5L29.9,735C10.6,754.2,0,779.8,0,807c0,27.2,10.6,52.8,29.9,72.1c19.2,19.2,44.8,29.8,72,29.8
	c27.2,0,52.8-10.6,72.1-29.9l346.4-346.3c19.2-19.1,29.8-45.4,29.7-72.6C550.2,458.3,550.2,456.4,550.1,454.5z"/>
</svg>
