<!-- Generator: Adobe Illustrator 19.0.0, SVG Export Plug-In  -->
<svg version="1.1"
	 xmlns="http://www.w3.org/2000/svg" xmlns:xlink="http://www.w3.org/1999/xlink" xmlns:a="http://ns.adobe.com/AdobeSVGViewerExtensions/3.0/"
	 x="0px" y="0px" width="81.5px" height="57.4px" viewBox="0 0 81.5 57.4"
	 style="overflow:scroll;enable-background:new 0 0 81.5 57.4;" xml:space="preserve">
<style type="text/css">
	.st0{fill-rule:evenodd;clip-rule:evenodd;fill:#009FE3;}
	
		.st1{fill-rule:evenodd;clip-rule:evenodd;fill:#009FE3;stroke:#FFFFFF;stroke-width:0.9672;stroke-linecap:round;stroke-linejoin:round;}
</style>
<defs>
</defs>
<g id="XMLID_22_">
	<path id="XMLID_28_" class="st0" d="M0.3,4.6c0,0-2.6,1.3,7.8-1c10.4-2.3,18-4.5,23-3.2c5,1.3,8.2,3.9,8.2,3.9v48.4
		c0,0-4.3-4-13.1-2.9c-8.9,1.1-25.5,4.2-25.5,4.2L0.3,4.6z"/>
	<path id="XMLID_27_" class="st0" d="M81.2,4.6c0,0,2.6,1.3-7.8-1c-10.4-2.3-18-4.5-23-3.2c-5,1.3-8.2,3.9-8.2,3.9v48.4
		c0,0,4.3-4,13.1-2.9c8.9,1.1,25.5,4.2,25.5,4.2L81.2,4.6z"/>
	<path id="XMLID_26_" class="st1" d="M38.4,53.7c0,0-3.6-2.8-10.6-2.2c-7.1,0.6-26.4,3.5-26.4,3.5"/>
	<path id="XMLID_25_" class="st1" d="M43.8,53.7c0,0,3.6-2.8,10.6-2.2c7.1,0.6,26.4,3.5,26.4,3.5"/>
	<path id="XMLID_24_" class="st1" d="M38.4,55.5c0,0-3.6-2.8-10.6-2.2C20.7,54,1.4,56.9,1.4,56.9"/>
	<path id="XMLID_23_" class="st1" d="M43.8,55.5c0,0,3.6-2.8,10.6-2.2c7.1,0.6,26.4,3.5,26.4,3.5"/>
</g>
</svg>
